<svg width="32" height="32" viewBox="0 0 32 32" fill="none" xmlns="http://www.w3.org/2000/svg">
<rect width="32" height="32" rx="15" fill="black"/>
<path d="M13.4706 3C12.0353 3 10.6588 3.57017 9.64389 4.58507C8.62899 5.59997 8.05882 6.97648 8.05882 8.41176C8.05882 9.84705 8.62899 11.2236 9.64389 12.2385C10.6588 13.2534 12.0353 13.8235 13.4706 13.8235C14.9059 13.8235 16.2824 13.2534 17.2973 12.2385C18.3122 11.2236 18.8824 9.84705 18.8824 8.41176C18.8824 6.97648 18.3122 5.59997 17.2973 4.58507C16.2824 3.57017 14.9059 3 13.4706 3ZM6.71806 15.1765C6.36174 15.175 6.00865 15.244 5.67903 15.3793C5.34941 15.5146 5.04975 15.7137 4.79723 15.9651C4.54471 16.2165 4.3443 16.5152 4.2075 16.8442C4.07069 17.1733 4.00018 17.526 4 17.8824C4 20.1702 5.127 21.8952 6.88853 23.0195C8.623 24.1248 10.9609 24.6471 13.4706 24.6471C14.0253 24.6471 14.5746 24.6214 15.1076 24.5699C14.0455 23.25 13.4677 21.606 13.4706 19.9118C13.4706 18.1124 14.1092 16.4618 15.1712 15.1765H6.71941H6.71806ZM27 19.9118C27 21.5265 26.3586 23.075 25.2168 24.2168C24.075 25.3586 22.5265 26 20.9118 26C19.2971 26 17.7485 25.3586 16.6067 24.2168C15.465 23.075 14.8235 21.5265 14.8235 19.9118C14.8235 18.2971 15.465 16.7485 16.6067 15.6067C17.7485 14.465 19.2971 13.8235 20.9118 13.8235C22.5265 13.8235 24.075 14.465 25.2168 15.6067C26.3586 16.7485 27 18.2971 27 19.9118ZM21.5558 16.34C21.5167 16.1992 21.4326 16.0751 21.3162 15.9867C21.1999 15.8983 21.0579 15.8504 20.9118 15.8504C20.7657 15.8504 20.6236 15.8983 20.5073 15.9867C20.391 16.0751 20.3068 16.1992 20.2678 16.34L19.6224 18.4127H17.5294C16.8746 18.4127 16.6013 19.2881 17.1316 19.6899L18.8228 20.9711L18.1775 23.0438C17.9745 23.6932 18.6889 24.2344 19.2192 23.8326L20.9104 22.5514L22.6016 23.8326C23.1319 24.2344 23.8463 23.6932 23.6434 23.0438L22.998 20.9711L24.6892 19.6899C25.2195 19.2881 24.9462 18.4127 24.2914 18.4127H22.2011L21.5544 16.3414L21.5558 16.34Z" fill="#16FF00"/>
</svg>
